<?xml version="1.0" encoding="UTF-8" standalone="no"?>
<!DOCTYPE svg PUBLIC "-//W3C//DTD SVG 1.1//EN" "http://www.w3.org/Graphics/SVG/1.1/DTD/svg11.dtd">
<svg width="100%" height="100%" viewBox="0 0 1417 1417" version="1.1" xmlns="http://www.w3.org/2000/svg" xmlns:xlink="http://www.w3.org/1999/xlink" xml:space="preserve" xmlns:serif="http://www.serif.com/" style="fill-rule:evenodd;clip-rule:evenodd;stroke-linecap:round;stroke-linejoin:round;stroke-miterlimit:2;">
    <g transform="matrix(4.14025,0,0,4.14025,-2668.69,-134.529)">
        <path d="M797.608,183.955C796.805,184.521 796.029,185.122 795.283,185.757C793.994,186.457 792.518,186.855 790.949,186.855C785.927,186.855 781.849,182.778 781.849,177.755C781.849,175.199 782.905,172.888 784.604,171.234C785.136,170.804 785.677,170.385 786.227,169.977C794.547,163.794 804.852,160.134 816.005,160.134C843.601,160.134 866.005,182.538 866.005,210.134C866.005,237.73 843.601,260.134 816.005,260.134C805.199,260.134 795.188,256.698 787.008,250.86C785.983,250.129 784.987,249.36 784.021,248.555C782.667,246.967 781.849,244.908 781.849,242.658C781.849,237.635 785.927,233.557 790.949,233.557C792.773,233.557 794.472,234.095 795.897,235.02C796.281,235.331 796.673,235.634 797.071,235.927C802.375,239.828 808.923,242.134 816.005,242.134C833.667,242.134 848.005,227.795 848.005,210.134C848.005,192.473 833.667,178.134 816.005,178.134C809.16,178.134 802.814,180.288 797.608,183.955Z" style="fill:rgb(235,69,95);"/>
    </g>
    <g transform="matrix(4.14025,0,0,4.14025,-2668.69,-134.529)">
        <path d="M797.608,183.955C796.805,184.521 796.029,185.122 795.283,185.757C793.994,186.457 792.518,186.855 790.949,186.855C785.927,186.855 781.849,182.778 781.849,177.755C781.849,175.199 782.905,172.888 784.604,171.234C785.136,170.804 785.677,170.385 786.227,169.977C794.547,163.794 804.852,160.134 816.005,160.134C843.601,160.134 866.005,182.538 866.005,210.134C866.005,237.73 843.601,260.134 816.005,260.134C805.199,260.134 795.188,256.698 787.008,250.86C785.983,250.129 784.987,249.36 784.021,248.555C782.667,246.967 781.849,244.908 781.849,242.658C781.849,237.635 785.927,233.557 790.949,233.557C792.773,233.557 794.472,234.095 795.897,235.02C796.281,235.331 796.673,235.634 797.071,235.927C802.375,239.828 808.923,242.134 816.005,242.134C833.667,242.134 848.005,227.795 848.005,210.134C848.005,192.473 833.667,178.134 816.005,178.134C809.16,178.134 802.814,180.288 797.608,183.955Z" style="fill:none;stroke:white;stroke-width:0.05px;stroke-dasharray:0.24,0.24,0,0;"/>
    </g>
    <g transform="matrix(4.14025,0,0,4.14025,-2668.69,-134.529)">
        <path d="M894.332,256.591C878.481,283.358 849.308,301.322 815.972,301.322C765.748,301.322 724.972,260.546 724.972,210.322C724.972,160.098 765.748,119.322 815.972,119.322C849.024,119.322 877.984,136.981 893.923,163.371C895.177,164.918 895.928,166.888 895.928,169.032C895.928,173.999 891.896,178.032 886.928,178.032C883.644,178.032 880.768,176.269 879.197,173.638L879.114,173.686C866.465,151.948 842.913,137.322 815.972,137.322C775.682,137.322 742.972,170.032 742.972,210.322C742.972,250.612 775.682,283.322 815.972,283.322C843.017,283.322 866.647,268.583 879.26,246.706L879.286,246.721C880.876,244.172 883.706,242.474 886.928,242.474C891.896,242.474 895.928,246.507 895.928,251.474C895.928,253.374 895.338,255.138 894.332,256.591Z" style="fill:rgb(235,69,95);"/>
    </g>
    <g transform="matrix(4.14025,0,0,4.14025,-2668.69,-134.529)">
        <path d="M894.332,256.591C878.481,283.358 849.308,301.322 815.972,301.322C765.748,301.322 724.972,260.546 724.972,210.322C724.972,160.098 765.748,119.322 815.972,119.322C849.024,119.322 877.984,136.981 893.923,163.371C895.177,164.918 895.928,166.888 895.928,169.032C895.928,173.999 891.896,178.032 886.928,178.032C883.644,178.032 880.768,176.269 879.197,173.638L879.114,173.686C866.465,151.948 842.913,137.322 815.972,137.322C775.682,137.322 742.972,170.032 742.972,210.322C742.972,250.612 775.682,283.322 815.972,283.322C843.017,283.322 866.647,268.583 879.26,246.706L879.286,246.721C880.876,244.172 883.706,242.474 886.928,242.474C891.896,242.474 895.928,246.507 895.928,251.474C895.928,253.374 895.338,255.138 894.332,256.591Z" style="fill:none;stroke:white;stroke-width:0.05px;stroke-dasharray:0.24,0.24,0,0;"/>
    </g>
    <g transform="matrix(4.14025,0,0,4.14025,-2668.69,-134.529)">
        <path d="M716.256,319.847C716.119,319.849 715.981,319.85 715.843,319.85C697.007,319.85 681.688,304.667 681.468,285.883L681.388,285.883L681.388,134.956L681.466,134.956C681.521,116.029 696.903,100.68 715.843,100.68C715.981,100.68 716.119,100.681 716.256,100.683L716.256,100.68L735.002,100.68C736.261,100.68 737.468,101.18 738.357,102.07C739.247,102.96 739.747,104.167 739.747,105.425L739.747,115.048C739.747,116.306 739.247,117.513 738.357,118.403C737.468,119.293 736.261,119.793 735.002,119.793L716.256,119.793L716.256,119.697C716.119,119.693 715.981,119.692 715.843,119.692C707.396,119.692 700.532,126.522 700.477,134.956L700.595,134.956L700.595,285.883L700.482,285.883C700.7,294.174 707.499,300.838 715.843,300.838C715.99,300.838 716.137,300.836 716.283,300.832L716.283,300.841L735.002,300.841C736.261,300.841 737.468,301.341 738.357,302.231C739.247,303.121 739.747,304.328 739.747,305.586L739.747,315.105C739.747,316.363 739.247,317.57 738.357,318.46C737.468,319.35 736.261,319.85 735.002,319.85L716.256,319.85L716.256,319.847Z" style="fill:rgb(30,40,120);"/>
    </g>
    <g transform="matrix(4.14025,0,0,4.14025,-2668.69,-134.529)">
        <path d="M915.977,100.683C916.114,100.681 916.252,100.68 916.39,100.68C935.227,100.68 950.545,115.863 950.765,134.647L950.846,134.647L950.846,285.574L950.768,285.574C950.713,304.501 935.33,319.85 916.39,319.85C916.252,319.85 916.114,319.849 915.977,319.847L915.977,319.85L897.221,319.85C895.965,319.85 894.761,319.351 893.873,318.463C892.985,317.575 892.486,316.371 892.486,315.115L892.486,305.472C892.486,304.217 892.985,303.012 893.873,302.124C894.761,301.236 895.965,300.737 897.221,300.737L915.977,300.737L915.977,300.833C916.114,300.837 916.252,300.838 916.39,300.838C924.837,300.838 931.701,294.008 931.756,285.574L931.638,285.574L931.638,134.647L931.751,134.647C931.533,126.356 924.734,119.692 916.39,119.692C916.243,119.692 916.097,119.694 915.95,119.698L915.95,119.689L897.221,119.689C894.606,119.689 892.486,117.569 892.486,114.954L892.486,100.68L915.977,100.68L915.977,100.683Z" style="fill:rgb(30,40,120);"/>
    </g>
    <g transform="matrix(4.14025,0,0,4.14025,-2668.69,-134.529)">
        <path d="M915.634,81.463C915.634,80.676 915.321,79.922 914.765,79.365C914.208,78.808 913.453,78.496 912.666,78.496L895.454,78.496C894.667,78.496 893.912,78.808 893.355,79.365C892.799,79.922 892.486,80.676 892.486,81.463L892.486,101.742L915.634,101.742L915.634,81.463Z" style="fill:rgb(30,40,120);"/>
    </g>
</svg>
